<!-- Generator: Adobe Illustrator 19.2.1, SVG Export Plug-In  -->
<svg version="1.1"
	 xmlns="http://www.w3.org/2000/svg" xmlns:xlink="http://www.w3.org/1999/xlink" xmlns:a="http://ns.adobe.com/AdobeSVGViewerExtensions/3.0/"
	 x="0px" y="0px" width="185.706px" height="179.502px" viewBox="0 0 185.706 179.502"
	 style="enable-background:new 0 0 185.706 179.502;" xml:space="preserve">
<style type="text/css">
	.st0{fill:#0067B1;}
</style>
<defs>
</defs>
<g>
	<g>
		<g>
			<path d="M64.37,99.246h-4.225v30.675h4.592v0.873H51.375v-0.873h4.362V99.475l-9.597,31.318h-0.918l-9.873-31.547v30.675h4.087
				v0.873h-8.955v-0.873H34.2V99.246h-3.949v-0.873h9.735l7.577,24.338l7.348-24.338h9.46V99.246z"/>
			<path d="M67.86,129.92h4.316V99.246H68.09v-0.873h10.286c3.26,0,6.107,0,8.633,0.781c5.373,1.653,9.965,7.118,9.965,15.337
				c0,4.454-1.469,8.817-4.5,12.031c-3.949,4.225-8.22,4.225-11.894,4.271H67.86V129.92z M76.906,99.337v30.491h2.618
				c4.5,0.046,10.332,0,11.526-7.164c0.414-2.296,0.459-8.266,0.459-8.587c0-2.663-0.138-7.623-1.01-9.919
				c-1.929-4.822-6.98-4.822-9.873-4.822H76.906z"/>
		</g>
		<g>
			<path d="M112.827,129.92v0.873H99.464v-0.873h4.409V99.246h-4.409v-0.873h12.72c3.536,0,6.98,0,9.551,2.021
				c1.332,1.01,2.618,2.755,2.618,5.419c0,2.021-0.781,3.857-2.526,5.327c-2.663,2.204-6.337,2.479-7.577,2.571
				c2.296,0.276,4.546,1.01,6.245,2.572c2.158,1.975,2.755,4.362,2.755,7.164c0,3.444,0,4.133,0.184,4.729
				c0.367,1.24,1.332,1.791,2.296,1.791c0.781,0,1.378-0.321,1.929-0.643l0.321,0.826c-0.643,0.414-1.561,0.919-3.352,0.919
				c-2.25,0-3.628-0.964-4.362-1.699c-2.066-1.929-2.158-4.638-2.204-7.163v-1.01c0-2.112,0-5.557-3.261-6.659
				c-1.607-0.551-3.077-0.551-6.337-0.459v15.842H112.827z M108.465,99.337v13.685h1.975c1.975,0,4.73,0,6.475-1.102
				c1.791-1.194,2.388-3.49,2.388-5.648c0-1.469-0.368-3.536-1.286-4.73c-1.699-2.25-4.914-2.204-7.577-2.204H108.465z"/>
			<path d="M154.615,108.613c-2.48-9.184-4.913-9.368-9.368-9.368h-1.239v30.675h4.73v0.873h-14.281v-0.873h4.868V99.246h-1.194
				c-2.663,0-3.949,0-5.465,1.148c-2.525,1.975-3.443,6.291-3.857,8.22h-0.78l0.413-10.24h26.175l0.734,10.24H154.615z"/>
		</g>
	</g>
	<path class="st0" d="M52.139,44.382c2.362-0.876,3.573-1.881,3.623-1.923l0.506-0.426l-0.506-0.426
		c-0.05-0.042-1.261-1.047-3.624-1.923c-2.338-0.867-5.051-1.155-5.165-1.167c-0.057-0.003-8.691-0.003-8.691-0.003h-0.423
		l-0.113,0.407c-0.285,1.026-0.429,2.073-0.428,3.112c-0.001,1.039,0.143,2.086,0.429,3.112l0.113,0.407h9.056
		C47.088,45.537,49.8,45.248,52.139,44.382z M46.157,39.626h0.759c0,0.003,2.646,0.288,4.836,1.1
		c1.271,0.472,2.136,0.962,2.674,1.306h-8.562C45.864,41.22,45.979,40.418,46.157,39.626z M38.762,44.439
		c-0.188-0.794-0.332-1.597-0.332-2.396v-0.01h7.434c0,0.814,0.115,1.616,0.294,2.409C44.321,44.441,39.453,44.44,38.762,44.439z
		 M105.951,27.495l0.133,0.071l0.151-0.006c0.103-0.004,2.561-0.111,5.239-0.729c2.718-0.628,4.392-1.648,4.462-1.691L116,25.1
		l4.025-4.303l-7.004-1.511l-6.663-1.016l-0.184,0.216l-3.38,3.613l-0.039,0.105c-0.023,0.062-0.544,1.518,0.512,3.007
		C104.234,26.569,105.881,27.457,105.951,27.495z M106.788,19.46c0.425,0.065,4.451,0.679,5.673,0.865l-2.596,2.775
		c1.864,0.342,3.651,0.731,5.381,1.151c-0.281,0.163-1.74,0.967-4.022,1.494c-1.898,0.438-3.644,0.605-4.457,0.664l3.096-3.309
		c-1.872-0.343-3.764-0.629-5.665-0.874C104.967,21.407,106.522,19.744,106.788,19.46z M115.999,58.966l-0.063-0.039
		c-0.07-0.043-1.745-1.063-4.461-1.691c-2.679-0.618-5.137-0.725-5.24-0.729l-0.151-0.006l-0.133,0.071
		c-0.069,0.037-1.718,0.925-2.682,2.283c-1.058,1.49-0.536,2.946-0.513,3.007l0.039,0.105l3.581,3.828l6.646-1.015l7.022-1.515
		l-0.688-0.712L115.999,58.966z M112.821,63.685c0,0-0.139,0.021-0.36,0.055l-2.597-2.776v0.001
		c-1.872,0.344-3.764,0.629-5.665,0.874c-0.224-0.239-0.384-0.411-0.421-0.451c-0.024-0.09-0.06-0.245-0.06-0.496
		c0-0.37,0.09-0.875,0.459-1.395c0.707-0.995,1.864-1.694,2.17-1.87c0.076,0.004,0.231,0.014,0.42,0.028l3.096,3.309
		c1.865-0.341,3.653-0.73,5.382-1.15c0.016,0.009,0.043,0.024,0.051,0.029c0.089,0.096,1.742,1.862,2.576,2.752
		C116.534,62.883,112.821,63.685,112.821,63.685z M109.864,23.102L109.864,23.102L109.864,23.102L109.864,23.102z M68.301,25.101
		l0.063,0.039c0.07,0.043,1.746,1.064,4.462,1.691c2.678,0.619,5.137,0.726,5.24,0.729l0.151,0.006l0.133-0.071
		c0.069-0.037,1.718-0.925,2.682-2.283c1.058-1.49,0.535-2.946,0.512-3.007L81.505,22.1l-3.58-3.828l-0.274,0.042l-6.371,0.972
		l-7.021,1.515l0.688,0.712L68.301,25.101z M71.48,20.38c0,0,0.139-0.021,0.36-0.055l2.597,2.776h0
		c1.871-0.343,3.763-0.629,5.663-0.874c0.224,0.239,0.384,0.411,0.422,0.451c0.025,0.09,0.061,0.245,0.061,0.497
		c0,0.37-0.09,0.875-0.458,1.393c-0.706,0.995-1.864,1.694-2.17,1.87c-0.076-0.004-0.231-0.014-0.421-0.028l-3.096-3.309
		c-1.865,0.342-3.653,0.731-5.383,1.151c-0.016-0.009-0.042-0.024-0.051-0.029c-0.089-0.096-1.742-1.863-2.575-2.753
		C67.767,21.182,71.48,20.38,71.48,20.38z M146.442,38.514h-0.422l-8.635,0c-0.172,0.015-2.885,0.303-5.224,1.169
		c-2.361,0.877-3.573,1.881-3.623,1.923l-0.507,0.426l0.506,0.426c0.051,0.042,1.262,1.047,3.623,1.923
		c2.34,0.867,5.053,1.156,5.166,1.167c0.059,0.003,8.692,0.003,8.692,0.003h0.423l0.113-0.407c0.284-1.022,0.428-2.069,0.428-3.112
		c0-1.043-0.144-2.09-0.428-3.112L146.442,38.514z M138.438,42.033c0,0.813-0.115,1.614-0.293,2.407c-0.467,0-0.76,0-0.76,0
		c0-0.003-2.645-0.289-4.838-1.101c-1.27-0.472-2.135-0.962-2.672-1.306L138.438,42.033c0-0.814-0.115-1.616-0.293-2.409
		c1.691,0.001,5.984,0.001,7.395,0.001c0.189,0.796,0.332,1.601,0.332,2.407L138.438,42.033L138.438,42.033z M150.753,34.217
		c-0.298-2.195-0.977-4.306-2.331-6.321v5.393c-0.439-0.683-0.947-1.353-1.495-2.016v-5.263c-0.731-0.797-1.507-1.578-2.331-2.339
		v1.582c-1.604-1.396-3.446-2.717-5.517-3.956v-1.957c-0.754-0.509-1.528-1.009-2.332-1.495v5.458
		c-0.61-0.333-1.237-0.661-1.884-0.981v-5.568c-0.102-0.057-0.199-0.116-0.303-0.172c-0.663-0.363-1.342-0.703-2.028-1.029v2.404
		c-2.418-1.034-5.012-1.956-7.736-2.778v-2.464c-0.768-0.213-1.545-0.414-2.332-0.599v5.51c-0.785-0.222-1.591-0.425-2.396-0.628
		V9.08l-0.931-0.063c-0.723-2.692-3.46-5.257-7.273-5.432c-2.222-0.102-3.959,0.43-5.163,1.58c-0.72,0.688-1.108,1.465-1.324,2.134
		l-0.728-0.021v7.038c-0.962-0.099-1.928-0.191-2.903-0.267l-0.026-8.684l-1.021-0.019c-1.371-3.072-4.612-5.235-8.414-5.328
		L92.286,0c-0.043,0-0.083,0.008-0.125,0.009C92.119,0.008,92.079,0,92.036,0l0,0.018c-3.802,0.093-7.043,2.255-8.414,5.328
		l-1.021,0.019l-0.026,8.684c-0.975,0.077-1.941,0.168-2.903,0.267V7.277l-0.728,0.021c-0.216-0.668-0.604-1.446-1.324-2.134
		c-1.204-1.15-2.941-1.681-5.163-1.58c-3.812,0.174-6.55,2.739-7.273,5.432L64.254,9.08v7.919c-0.806,0.203-1.612,0.406-2.397,0.628
		v-5.51c-0.787,0.185-1.564,0.386-2.332,0.599v2.464c-2.724,0.822-5.318,1.744-7.736,2.778v-2.404
		c-0.687,0.326-1.365,0.666-2.029,1.029c-0.103,0.056-0.2,0.116-0.302,0.172v5.568c-0.646,0.321-1.274,0.648-1.884,0.981v-5.458
		c-0.804,0.485-1.578,0.985-2.332,1.495v1.957c-2.07,1.239-3.913,2.56-5.516,3.956v-1.582c-0.825,0.761-1.6,1.542-2.331,2.339v5.263
		c-0.547,0.663-1.056,1.334-1.495,2.016v-5.393c-1.355,2.015-2.033,4.125-2.332,6.32c-0.009,0.064-0.011,0.131-0.019,0.195v29.043
		c0.009,0.068,0.009,0.139,0.019,0.207c0.301,2.176,0.979,4.269,2.332,6.268v-11.78c0.452,0.652,0.949,1.296,1.495,1.929v11.726
		c0.732,0.798,1.505,1.581,2.331,2.343v-3.779c1.599,1.428,3.452,2.773,5.516,4.043v4.064c0.754,0.51,1.528,1.01,2.332,1.496V67.986
		c0.611,0.336,1.239,0.666,1.884,0.988v12.086c0.102,0.057,0.199,0.117,0.302,0.173c0.664,0.362,1.342,0.71,2.029,1.048v-4.443
		c2.418,1.061,5.013,2.008,7.736,2.852v4.719c0.768,0.252,1.545,0.496,2.332,0.727V73.741c0.926,0.269,1.866,0.522,2.819,0.767
		v12.389c0.77,0.194,1.545,0.381,2.331,0.555v-4.789c3.379,0.742,6.904,1.332,10.539,1.763v4.743
		c0.772,0.086,1.551,0.158,2.332,0.229V77.141c1.304,0.131,2.62,0.242,3.946,0.332v12.217c0.774,0.045,1.551,0.086,2.332,0.118
		v-4.686c1.977,0.093,3.968,0.157,5.979,0.159v0c0.009,0,0.017,0,0.026,0c0.009,0,0.017,0,0.026,0v0
		c2.012-0.002,4.002-0.065,5.979-0.159v4.687c0.781-0.032,1.557-0.074,2.332-0.119V77.473c1.327-0.09,2.643-0.201,3.946-0.333
		v12.256c0.781-0.07,1.56-0.143,2.332-0.228v-4.744c3.634-0.43,7.16-1.021,10.539-1.763v4.789c0.785-0.174,1.561-0.36,2.331-0.554
		v-12.39c0.953-0.243,1.893-0.498,2.819-0.766v12.393c0.787-0.23,1.564-0.474,2.332-0.727v-4.719
		c2.724-0.843,5.318-1.79,7.736-2.851v4.442c0.686-0.337,1.365-0.685,2.028-1.047c0.104-0.056,0.2-0.116,0.303-0.172V68.975
		c0.645-0.323,1.273-0.653,1.884-0.988V79.97c0.804-0.485,1.578-0.985,2.332-1.495V74.41c2.064-1.269,3.917-2.615,5.517-4.043v3.779
		c0.826-0.762,1.6-1.544,2.331-2.342V60.078c0.546-0.633,1.042-1.276,1.495-1.929v11.78c1.352-1.998,2.029-4.091,2.331-6.267
		c0.01-0.068,0.011-0.139,0.018-0.208V34.412C150.764,34.348,150.762,34.282,150.753,34.217z M139.08,23.106
		c2.113,1.326,3.957,2.742,5.517,4.235v1.475c-1.569-1.457-3.404-2.851-5.517-4.163V23.106z M124.796,16.807
		c2.524,0.777,4.933,1.643,7.183,2.607c0.189,0.082,0.367,0.168,0.554,0.251v1.565c-2.425-1.077-5.009-2.05-7.736-2.907V16.807z
		 M107.308,7.544c0.149-0.337,0.365-0.693,0.699-1.013c0.816-0.779,2.085-1.135,3.771-1.058c3.195,0.146,5.438,2.502,5.628,4.64
		v0.821c-3.242-0.721-6.627-1.304-10.097-1.734V7.544z M107.308,11.795c3.477,0.442,6.864,1.038,10.097,1.776v2.796
		c-3.24-0.726-6.62-1.305-10.097-1.744V11.795z M85.253,8.125c0.262-3.477,3.302-5.944,6.908-5.98
		c3.606,0.036,6.646,2.503,6.908,5.98v0.352c-2.285-0.124-4.6-0.198-6.908-0.198c-2.308,0-4.624,0.074-6.908,0.198V8.125z
		 M85.253,11.053c2.284-0.127,4.598-0.204,6.908-0.204c2.31,0,4.624,0.077,6.908,0.204v2.816c-2.209-0.125-4.446-0.191-6.704-0.199
		v-0.006c-0.068,0-0.136,0.003-0.204,0.003c-0.068,0-0.136-0.003-0.204-0.003v0.006c-2.258,0.008-4.495,0.074-6.704,0.199V11.053z
		 M66.917,10.114c0.189-2.139,2.433-4.494,5.627-4.64c1.686-0.077,2.955,0.278,3.771,1.058c0.334,0.319,0.55,0.676,0.699,1.013
		v1.657c-3.471,0.43-6.855,1.013-10.097,1.734V10.114z M66.917,13.571c3.233-0.738,6.62-1.334,10.097-1.776v2.828
		c-3.477,0.439-6.857,1.019-10.097,1.744V13.571z M51.789,19.665c0.187-0.083,0.364-0.17,0.554-0.251
		c2.249-0.964,4.658-1.83,7.182-2.607v1.516c-2.728,0.857-5.312,1.83-7.736,2.907V19.665z M39.726,27.341
		c1.559-1.493,3.403-2.909,5.516-4.235v1.547c-2.112,1.312-3.947,2.706-5.516,4.163V27.341z M45.243,73.113
		c-2.099-1.335-3.945-2.758-5.516-4.26v-1.275c1.611,1.443,3.454,2.809,5.516,4.09V73.113z M45.243,69.426
		c-2.112-1.391-3.955-2.875-5.516-4.441v-7.618c1.582,1.552,3.437,3.015,5.516,4.392V69.426z M59.526,79.528
		c-2.604-0.819-5.086-1.734-7.401-2.755c-0.114-0.051-0.223-0.104-0.335-0.154v-1.5c2.421,1.076,5.014,2.04,7.736,2.898V79.528z
		 M59.526,76.041c-2.549-0.826-4.979-1.746-7.25-2.771c-0.167-0.074-0.325-0.154-0.486-0.231V65.42
		c0.136,0.065,0.266,0.133,0.404,0.196c2.296,1.054,4.755,1.999,7.333,2.847V76.041z M77.546,83.305
		c-3.638-0.435-7.164-1.031-10.539-1.781v-1.496c3.38,0.755,6.906,1.357,10.539,1.795V83.305z M77.546,79.916
		c-3.639-0.445-7.165-1.059-10.539-1.828v-7.541c3.377,0.784,6.901,1.411,10.539,1.865V79.916z M98.166,84.007
		c-1.986,0.095-3.984,0.16-6.005,0.16c-2.021,0-4.02-0.064-6.005-0.16v-1.479c1.981,0.097,3.977,0.162,5.992,0.163v0.001
		c0.004,0,0.009,0,0.013,0c0.004,0,0.009,0,0.013,0v-0.001c2.016,0,4.011-0.066,5.992-0.162V84.007z M98.166,80.637
		c-1.985,0.097-3.984,0.163-6.005,0.164c-2.021,0-4.02-0.066-6.005-0.164V73.15c1.981,0.098,3.976,0.165,5.992,0.165v0.001
		c2.025,0,4.028-0.068,6.019-0.167V80.637z M117.315,81.523c-3.375,0.75-6.901,1.347-10.539,1.781v-1.482
		c3.633-0.438,7.158-1.04,10.539-1.795V81.523z M117.315,78.088c-3.373,0.769-6.899,1.382-10.539,1.828v-7.504
		c3.638-0.454,7.162-1.081,10.539-1.865V78.088z M132.533,76.619c-0.112,0.051-0.221,0.104-0.335,0.154
		c-2.315,1.021-4.798,1.936-7.401,2.755v-1.512c2.722-0.857,5.315-1.821,7.736-2.898V76.619z M132.533,73.038
		c-0.161,0.078-0.319,0.157-0.486,0.232c-2.271,1.024-4.701,1.945-7.25,2.771v-7.578c2.577-0.848,5.036-1.792,7.333-2.847
		c0.138-0.063,0.268-0.131,0.403-0.196V73.038z M144.596,68.854c-1.571,1.502-3.418,2.925-5.517,4.26v-1.445
		c2.063-1.281,3.905-2.647,5.517-4.089V68.854z M144.596,64.984c-1.561,1.566-3.404,3.051-5.517,4.442v-7.668
		c2.079-1.376,3.935-2.839,5.517-4.392V64.984z M148.422,50.491c-0.244,1.47-0.75,2.906-1.495,4.299v-5.148
		c-0.647,1.035-1.423,2.047-2.331,3.031v1.949c-1.521,1.714-3.368,3.338-5.517,4.856v-2.197c-0.737,0.491-1.519,0.969-2.332,1.437
		v5.801c-0.606,0.36-1.239,0.711-1.884,1.056v-5.827c-0.75,0.389-1.525,0.77-2.331,1.141v2.438
		c-0.392,0.193-0.786,0.384-1.192,0.571c-2.057,0.944-4.252,1.796-6.544,2.57v-2.596c-0.766,0.246-1.543,0.482-2.332,0.709v5.979
		c-0.922,0.273-1.861,0.533-2.819,0.781v-6c-0.768,0.194-1.545,0.379-2.331,0.556v2.705c-3.37,0.8-6.893,1.441-10.539,1.904v-2.808
		c-0.772,0.093-1.55,0.178-2.332,0.256v6.085c-1.3,0.134-2.615,0.247-3.946,0.338v-6.087c-0.773,0.052-1.551,0.092-2.332,0.129
		v2.839c-1.989,0.101-3.993,0.169-6.019,0.169c-2.017-0.001-4.012-0.068-5.992-0.169v-2.839c-0.78-0.037-1.559-0.078-2.332-0.13
		v6.087c-1.332-0.092-2.646-0.204-3.946-0.338v-6.084c-0.782-0.078-1.56-0.164-2.332-0.256v2.808
		c-3.646-0.463-7.169-1.103-10.539-1.903v-2.705c-0.786-0.177-1.562-0.361-2.331-0.556v5.999c-0.957-0.248-1.897-0.508-2.819-0.781
		V64.58c-0.789-0.227-1.566-0.463-2.332-0.709v2.596c-2.292-0.773-4.487-1.625-6.543-2.569c-0.406-0.187-0.802-0.378-1.193-0.571
		v-2.438c-0.805-0.37-1.58-0.751-2.331-1.141v5.828c-0.644-0.346-1.277-0.695-1.884-1.057v-5.801
		c-0.813-0.468-1.595-0.945-2.332-1.437v2.196c-2.148-1.518-3.995-3.142-5.516-4.856v-1.949c-0.909-0.984-1.684-1.996-2.331-3.031
		v5.146c-0.746-1.393-1.251-2.828-1.495-4.299v-2.939h0.004V41.52c0-14.034,25.144-25.455,56.256-25.505
		c31.112,0.05,56.256,11.471,56.256,25.505v6.032h0.005V50.491z M117.115,28.045c-0.306,1.539,0.527,2.752,0.562,2.804l0.14,0.199
		l0.241,0.033c0.099,0.014,2.461,0.331,5.462,0.213c3.018-0.118,5.397-0.763,5.496-0.79c0.078-0.028,6.184-2.731,6.184-2.731
		l1.01-0.448l-0.961-0.545c-1.382-0.783-2.893-1.539-4.493-2.248c-1.6-0.708-3.304-1.376-5.065-1.985l-0.207-0.071l-0.2,0.088
		l-6.104,2.703C119.014,25.373,117.419,26.525,117.115,28.045z M125.522,23.677c1.49,0.52,2.931,1.083,4.306,1.676l-4.948,2.191
		c1.368,0.605,2.629,1.24,3.821,1.891c-0.035,0.016-0.058,0.025-0.058,0.025c0.055-0.021-2.284,0.611-5.168,0.724
		c-1.811,0.071-3.382-0.023-4.321-0.106l5.726-2.535c-1.369-0.605-2.801-1.164-4.271-1.691
		C122.178,25.158,125.23,23.806,125.522,23.677z M130.797,46.605c-2.886,0.402-4.811,1.101-4.891,1.131l-0.451,0.166l0.099,0.471
		c0.011,0.052,0.287,1.299,1.801,2.584c1.456,1.235,3.76,1.976,3.856,2.007c0.068,0.017,8.046,1.48,8.046,1.48l0.245,0.045
		l0.197-0.154c1.117-0.873,2.127-1.791,3.002-2.727c0.883-0.942,1.639-1.915,2.25-2.891l0.436-0.695l-8.784-1.61
		C136.428,46.396,133.685,46.204,130.797,46.605z M143.481,48.804c-0.481,0.687-0.965,1.375-1.592,2.044
		c-0.08,0.087-0.178,0.171-0.262,0.257l-6.713-1.231c-0.713,0.762-1.523,1.493-2.387,2.204c-0.631-0.116-1.047-0.192-1.047-0.192v0
		c0-0.005-2.136-0.701-3.406-1.779c-0.697-0.591-1.045-1.131-1.234-1.503c0.124-0.039,0.275-0.083,0.439-0.129l7.635,1.399
		c0.713-0.762,1.309-1.533,1.834-2.307C137.822,47.767,141.729,48.483,143.481,48.804z M123.519,52.771
		c-3.001-0.117-5.363,0.2-5.462,0.213l-0.241,0.033l-0.139,0.199c-0.036,0.051-0.87,1.265-0.562,2.802
		c0.304,1.523,1.898,2.674,1.966,2.722c0.098,0.056,6.203,2.758,6.203,2.758l0.2,0.088l0.207-0.071
		c1.765-0.61,3.468-1.278,5.063-1.984c1.602-0.709,3.113-1.465,4.494-2.248l0.962-0.545l-7.116-3.15
		C128.917,53.535,126.537,52.889,123.519,52.771z M130.305,58.515c-0.154,0.068-0.321,0.131-0.477,0.198l-4.948-2.19
		c-1.368,0.606-2.801,1.163-4.271,1.691c-0.528-0.233-0.888-0.393-0.918-0.406c-0.112-0.083-1.277-0.965-1.485-2.006
		c-0.032-0.161-0.046-0.318-0.046-0.469c0-0.571,0.193-1.03,0.32-1.278c0.156-0.018,0.389-0.042,0.674-0.067l5.725,2.535
		c1.37-0.606,2.631-1.241,3.824-1.892c0.002,0,0.017,0.004,0.018,0.004c0,0.005,3.219,1.431,4.949,2.197
		C132.592,57.407,131.505,57.983,130.305,58.515z M67.186,56.019c0.307-1.538-0.527-2.751-0.563-2.803l-0.139-0.199l-0.241-0.033
		c-0.099-0.013-2.46-0.332-5.462-0.213c-3.016,0.117-5.396,0.763-5.495,0.791c-0.078,0.027-6.184,2.73-6.184,2.73L48.09,56.74
		l0.963,0.545c1.386,0.785,2.898,1.541,4.493,2.248c1.597,0.708,3.301,1.375,5.064,1.984l0.207,0.071l6.306-2.791
		C65.288,58.693,66.882,57.541,67.186,56.019z M58.778,60.389c-1.492-0.521-2.933-1.084-4.306-1.676l4.948-2.191l0,0
		c-1.367-0.605-2.627-1.239-3.818-1.89c0.034-0.015,0.056-0.025,0.056-0.025c-0.054,0.021,2.284-0.613,5.166-0.725
		c1.812-0.071,3.383,0.023,4.322,0.105l-5.726,2.534c1.369,0.606,2.802,1.164,4.272,1.691C62.125,58.907,59.07,60.259,58.778,60.389
		z M53.503,37.46c2.887-0.401,4.811-1.101,4.891-1.131l0.451-0.165l-0.098-0.47c-0.011-0.053-0.285-1.299-1.8-2.585
		c-1.456-1.235-3.759-1.976-3.856-2.007c-0.068-0.017-8.045-1.479-8.045-1.479l-0.246-0.045l-0.197,0.154
		c-1.116,0.872-2.126,1.79-3.002,2.727c-0.88,0.939-1.637,1.913-2.25,2.892l-0.434,0.694l8.783,1.61
		C47.873,37.67,50.616,37.862,53.503,37.46z M40.82,35.262c0.482-0.688,0.966-1.377,1.591-2.044
		c0.081-0.087,0.179-0.171,0.263-0.258l6.712,1.231l0-0.001c0.713-0.762,1.523-1.492,2.387-2.204
		c0.63,0.116,1.047,0.192,1.047,0.192c0,0-0.001,0-0.001,0c0,0.005,2.136,0.701,3.406,1.778c0.697,0.591,1.046,1.132,1.233,1.504
		c-0.124,0.038-0.275,0.083-0.439,0.13l-7.634-1.4c-0.714,0.763-1.308,1.533-1.833,2.308C46.479,36.3,42.572,35.583,40.82,35.262z
		 M56.946,50.956c1.516-1.286,1.789-2.533,1.8-2.585l0.098-0.47l-0.45-0.166c-0.08-0.03-2.004-0.73-4.891-1.131
		c-2.886-0.401-5.629-0.209-5.745-0.201c-0.06,0.007-8.037,1.47-8.037,1.47l-0.807,0.147l0.436,0.695
		c0.615,0.981,1.372,1.954,2.25,2.892c0.871,0.933,1.881,1.851,3.001,2.727l0.197,0.154l8.223-1.508
		C53.187,52.933,55.49,52.191,56.946,50.956z M45.112,53.3c-0.895-0.711-1.712-1.447-2.438-2.195l6.712-1.231v0
		c-0.712-0.761-1.307-1.532-1.832-2.305c0.211-0.038,0.344-0.063,0.344-0.063c-0.033,0.005,2.686-0.184,5.451,0.2
		c1.6,0.223,2.865,0.537,3.671,0.768l-7.634,1.4c0.714,0.763,1.524,1.494,2.389,2.206C49.942,52.415,46.073,53.124,45.112,53.3z
		 M60.781,31.295c3.003,0.118,5.363-0.2,5.462-0.213l0.241-0.033l0.139-0.199c0.036-0.051,0.87-1.265,0.563-2.803
		c-0.304-1.521-1.898-2.673-1.966-2.721c-0.098-0.056-6.203-2.759-6.203-2.759l-0.2-0.088l-0.207,0.071
		c-1.764,0.61-3.468,1.278-5.065,1.984c-1.6,0.708-3.112,1.465-4.493,2.248l-0.961,0.545l7.116,3.15
		C55.385,30.532,57.764,31.177,60.781,31.295z M53.996,25.551c0.154-0.068,0.321-0.131,0.477-0.198l4.948,2.191h0
		c1.368-0.605,2.801-1.164,4.271-1.691c0.528,0.233,0.888,0.393,0.918,0.406c0.112,0.083,1.277,0.965,1.485,2.005
		c0.032,0.161,0.046,0.318,0.046,0.469c0,0.572-0.193,1.031-0.321,1.279c-0.156,0.018-0.389,0.042-0.674,0.066l-5.726-2.535
		c-1.369,0.606-2.631,1.241-3.823,1.893c-0.002,0-0.016-0.004-0.016-0.004c-0.001-0.005-3.22-1.432-4.95-2.198
		C51.708,26.658,52.796,26.081,53.996,25.551z M99.399,61.919l-0.064-0.122c-0.029-0.056-0.744-1.372-2.797-2.457
		c-1.967-1.04-4.169-1.559-4.261-1.581l-0.126-0.03l-0.126,0.03c-0.093,0.021-2.296,0.541-4.262,1.581
		c-2.054,1.085-2.767,2.402-2.796,2.458l-0.064,0.122v4.503l7.249,0.195l7.264-0.196l-0.015-0.541V61.919z M98.287,65.34
		c-0.893,0.024-6.137,0.166-6.137,0.166v-2.982H92.15c-2.076,0-4.121-0.057-6.136-0.158v-0.145c0.151-0.236,0.772-1.106,2.269-1.897
		c1.681-0.889,3.538-1.367,3.868-1.449v3.649c2.076,0,4.121-0.057,6.137-0.158V65.34z M78.35,56.571L78.217,56.5l-0.151,0.006
		c-0.104,0.004-2.562,0.11-5.241,0.729c-2.716,0.627-4.391,1.648-4.46,1.691l-0.063,0.039l-4.025,4.302l7.004,1.512l6.661,1.016
		l0.184-0.216l3.38-3.613l0.039-0.105c0.023-0.061,0.545-1.517-0.513-3.007C80.068,57.496,78.419,56.608,78.35,56.571z
		 M77.513,64.605c-0.425-0.065-4.451-0.679-5.672-0.865l2.597-2.776h-0.001c-1.864-0.341-3.652-0.73-5.381-1.15
		c0.281-0.163,1.741-0.968,4.021-1.494c1.898-0.439,3.645-0.605,4.458-0.664l-3.096,3.309c1.872,0.344,3.764,0.629,5.664,0.874
		C79.334,62.658,77.778,64.321,77.513,64.605z M127.355,33.109c-1.514,1.286-1.79,2.532-1.801,2.585l-0.099,0.47l0.451,0.166
		c0.081,0.03,2.005,0.729,4.891,1.131c2.888,0.401,5.631,0.209,5.746,0.201c0.06-0.008,8.037-1.471,8.037-1.471l0.806-0.147
		l-0.435-0.694c-0.611-0.977-1.369-1.95-2.25-2.891c-0.878-0.939-1.889-1.857-3.002-2.727l-0.197-0.154l-0.245,0.045l-7.977,1.463
		C131.115,31.133,128.811,31.874,127.355,33.109z M139.189,30.766c0.89,0.708,1.707,1.443,2.438,2.195l-6.713,1.231l0,0
		c0.713,0.762,1.307,1.532,1.832,2.306c-0.211,0.038-0.344,0.063-0.344,0.063c0.033-0.006-2.685,0.183-5.452-0.201
		c-1.599-0.223-2.863-0.537-3.671-0.768l7.634-1.399c-0.715-0.763-1.524-1.494-2.389-2.206
		C134.36,31.651,138.228,30.942,139.189,30.766z M84.901,22.146l0.064,0.122c0.029,0.056,0.743,1.374,2.797,2.458
		c1.967,1.04,4.169,1.56,4.262,1.581l0.126,0.029l0.126-0.029c0.093-0.022,2.295-0.542,4.262-1.581
		c2.054-1.085,2.767-2.403,2.796-2.458l0.064-0.122v-4.501l-7.249-0.195l-6.724,0.181l-0.541,0.015l0.015,0.541V22.146z
		 M86.014,18.726c0.893-0.024,6.137-0.166,6.137-0.166v2.981c2.076,0,4.121,0.058,6.136,0.159v0.144
		c-0.151,0.236-0.772,1.107-2.269,1.898c-1.681,0.889-3.537,1.367-3.868,1.449v-3.649c-2.077,0-4.122,0.058-6.137,0.159V18.726z"/>
	<g>
		<path d="M9.703,150.949c-0.905-3.352-1.793-3.418-3.418-3.418H5.832v11.194h1.726v0.318H2.346v-0.318h1.776v-11.194H3.687
			c-0.972,0-1.441,0-1.994,0.419c-0.922,0.72-1.257,2.295-1.408,3H0l0.151-3.737h9.552l0.268,3.737H9.703z"/>
		<path d="M10.558,147.212h2.564v6.016c0.352-0.419,1.072-1.273,2.631-1.273c0.938,0,1.592,0.318,1.894,0.721
			c0.201,0.268,0.335,0.586,0.335,1.508v4.542h1.207v0.318h-3.821v-0.318h1.19v-4.642c-0.017-0.519-0.034-0.77-0.101-0.988
			c-0.184-0.503-0.67-0.67-1.14-0.67c-0.469,0-1.072,0.134-1.542,0.704c-0.587,0.67-0.603,1.324-0.653,2.731v2.866h1.173v0.318
			h-3.821v-0.318h1.223v-11.194h-1.139V147.212z"/>
		<path d="M26.393,156.764c-0.184,1.123-1.089,2.48-2.815,2.48c-1.843,0-3.435-1.592-3.435-3.586c0-1.927,1.458-3.703,3.318-3.703
			c1.525,0,2.916,1.106,3.016,3.066h-4.709v0.737c0,1.458,0,2.011,0.386,2.514c0.335,0.436,0.871,0.62,1.424,0.62
			c1.29,0,2.228-0.972,2.447-2.128H26.393z M24.835,154.049c-0.017-0.67-0.034-1.76-1.475-1.76c-0.302,0-0.687,0.05-1.022,0.285
			c-0.536,0.385-0.553,0.939-0.57,1.475v0.637h3.067V154.049z"/>
		<path d="M36.448,147.212c0.922,0,1.776,0,2.53,0.218c1.408,0.436,2.212,1.575,2.212,2.865c0,1.005-0.486,1.659-0.938,2.061
			c-1.056,0.955-2.43,0.972-3.436,0.988h-1.592v5.379h1.592v0.318h-4.859v-0.318h1.592v-11.194h-1.592v-0.318H36.448z
			 M35.225,147.564v5.413h1.357c1.022-0.017,1.608-0.017,2.128-0.536c0.436-0.436,0.553-1.005,0.553-2.195
			c0-1.357-0.201-1.977-0.821-2.363c-0.486-0.301-0.972-0.318-2.329-0.318H35.225z"/>
		<path d="M41.777,152.156h2.631v1.776c0.268-0.721,0.704-1.927,1.91-1.927c0.671,0,1.005,0.452,1.005,0.972
			c0,0.503-0.301,0.872-0.704,0.872c-0.435,0-0.603-0.369-0.637-0.821v-0.151c-0.034-0.134-0.067-0.218-0.218-0.218
			c-0.118,0-0.486,0.05-0.838,0.838c-0.486,1.123-0.503,2.128-0.52,3.167v2.061h1.189v0.318h-3.82v-0.318h1.257v-6.251h-1.257
			V152.156z"/>
		<path d="M54.261,156.764c-0.184,1.123-1.089,2.48-2.815,2.48c-1.844,0-3.436-1.592-3.436-3.586c0-1.927,1.458-3.703,3.318-3.703
			c1.525,0,2.916,1.106,3.017,3.066h-4.709v0.737c0,1.458,0,2.011,0.385,2.514c0.335,0.436,0.871,0.62,1.425,0.62
			c1.29,0,2.229-0.972,2.446-2.128H54.261z M52.703,154.049c-0.017-0.67-0.034-1.76-1.475-1.76c-0.301,0-0.687,0.05-1.022,0.285
			c-0.536,0.385-0.553,0.939-0.57,1.475v0.637h3.067V154.049z"/>
		<path d="M55.165,152.474v-0.318h2.648v0.771c0.419-0.385,1.173-0.972,2.379-0.972c0.52,0,1.073,0.117,1.441,0.402
			c0.318,0.251,0.419,0.503,0.486,0.653c0.453-0.469,1.14-1.056,2.463-1.056c0.955,0,1.424,0.369,1.609,0.603
			c0.318,0.419,0.385,0.922,0.385,1.374v4.792h1.207v0.318h-3.737v-0.318h1.156v-4.659c0-0.586,0-0.838-0.084-1.056
			c-0.167-0.419-0.553-0.603-1.056-0.603c-0.704,0-1.14,0.385-1.341,0.637c-0.452,0.57-0.469,1.173-0.486,2.178v3.502h1.089v0.318
			h-3.72v-0.318h1.19V154.2c0-0.57,0-0.989-0.167-1.274c-0.118-0.201-0.419-0.503-0.956-0.503c-0.57,0-1.072,0.285-1.357,0.653
			c-0.402,0.503-0.452,1.156-0.486,2.145v3.502h1.156v0.318h-3.821v-0.318h1.291v-6.251H55.165z"/>
		<path d="M68.387,152.156h2.631v6.569h1.156v0.318h-3.788v-0.318h1.24v-6.251h-1.24V152.156z M70.264,147.497
			c0.536,0,0.972,0.436,0.972,0.972c0,0.537-0.436,0.972-0.972,0.972c-0.536,0-0.972-0.435-0.972-0.972
			C69.292,147.933,69.728,147.497,70.264,147.497z"/>
		<path d="M79.447,156.764c-0.184,1.123-1.089,2.48-2.815,2.48c-1.844,0-3.436-1.592-3.436-3.586c0-1.927,1.458-3.703,3.318-3.703
			c1.525,0,2.916,1.106,3.017,3.066h-4.709v0.737c0,1.458,0,2.011,0.385,2.514c0.335,0.436,0.872,0.62,1.425,0.62
			c1.29,0,2.229-0.972,2.446-2.128H79.447z M77.889,154.049c-0.017-0.67-0.033-1.76-1.475-1.76c-0.301,0-0.687,0.05-1.022,0.285
			c-0.536,0.385-0.553,0.939-0.57,1.475v0.637h3.066V154.049z"/>
		<path d="M80.369,152.156H83v1.776c0.268-0.721,0.704-1.927,1.91-1.927c0.67,0,1.005,0.452,1.005,0.972
			c0,0.503-0.301,0.872-0.704,0.872c-0.436,0-0.604-0.369-0.637-0.821v-0.151c-0.034-0.134-0.067-0.218-0.218-0.218
			c-0.118,0-0.486,0.05-0.838,0.838c-0.486,1.123-0.503,2.128-0.52,3.167v2.061h1.19v0.318h-3.821v-0.318h1.257v-6.251h-1.257
			V152.156z"/>
		<path d="M96.825,155.272h-3.787l-1.156,3.452h1.542v0.318h-3.134v-0.318h1.14l4.022-11.529h0.486l3.854,11.529h1.34v0.318h-4.792
			v-0.318h1.642L96.825,155.272z M93.155,154.92h3.536l-1.743-5.161L93.155,154.92z"/>
		<path d="M101.986,159.043h-0.15v-2.648h0.268c0.201,0.788,0.301,1.139,0.603,1.542c0.067,0.101,0.67,0.888,1.692,0.888
			c1.039,0,1.626-0.737,1.626-1.324c0-0.687-0.452-0.922-1.692-1.156c-0.553-0.101-1.123-0.201-1.525-0.436
			c-0.704-0.402-0.921-1.173-0.921-1.793c0-1.24,0.838-2.162,2.094-2.162c0.922,0,1.475,0.469,1.76,0.721l0.318-0.62h0.167v2.061
			h-0.301c-0.168-1.24-1.19-1.776-1.978-1.776c-0.989,0-1.525,0.704-1.525,1.224c0,0.62,0.503,0.771,1.558,0.988l0.469,0.084
			c0.788,0.167,2.128,0.453,2.128,2.246c0,1.156-0.704,2.363-2.228,2.363c-0.905,0-1.458-0.419-1.961-0.821L101.986,159.043z"/>
		<path d="M108.169,159.043h-0.15v-2.648h0.268c0.201,0.788,0.301,1.139,0.603,1.542c0.067,0.101,0.67,0.888,1.692,0.888
			c1.039,0,1.626-0.737,1.626-1.324c0-0.687-0.452-0.922-1.692-1.156c-0.553-0.101-1.123-0.201-1.525-0.436
			c-0.704-0.402-0.921-1.173-0.921-1.793c0-1.24,0.838-2.162,2.094-2.162c0.922,0,1.475,0.469,1.76,0.721l0.318-0.62h0.167v2.061
			h-0.301c-0.168-1.24-1.19-1.776-1.978-1.776c-0.989,0-1.525,0.704-1.525,1.224c0,0.62,0.502,0.771,1.558,0.988l0.469,0.084
			c0.788,0.167,2.128,0.453,2.128,2.246c0,1.156-0.704,2.363-2.229,2.363c-0.905,0-1.458-0.419-1.961-0.821L108.169,159.043z"/>
		<path d="M117.621,159.244c-1.86,0-3.503-1.575-3.503-3.636c0-2.061,1.626-3.653,3.503-3.653c1.843,0,3.452,1.525,3.452,3.636
			C121.073,157.719,119.448,159.244,117.621,159.244z M117.604,152.307c-0.201,0-0.737,0.017-1.189,0.385
			c-0.654,0.52-0.654,1.089-0.654,3.268c0,1.341,0.034,2.061,0.654,2.547c0.335,0.268,0.788,0.385,1.223,0.385
			c0.586,0,0.989-0.218,1.223-0.419c0.486-0.469,0.537-0.972,0.537-2.849c0-0.469,0-0.922-0.017-1.391
			C119.347,153.63,119.297,152.307,117.604,152.307z"/>
		<path d="M128.664,156.831c-0.252,1.206-1.123,2.413-2.883,2.413c-1.927,0-3.368-1.625-3.368-3.569c0-2.111,1.592-3.72,3.553-3.72
			c1.508,0,2.446,0.955,2.446,1.81c0,0.553-0.335,0.922-0.754,0.922c-0.452,0-0.704-0.435-0.704-0.854
			c0-0.302,0.117-0.62,0.302-0.771c0.1-0.101,0.134-0.134,0.134-0.218c0-0.134-0.486-0.57-1.441-0.57
			c-0.318,0-1.207,0.017-1.626,0.922c-0.285,0.653-0.302,2.262-0.302,3.033c0,0.503,0.017,1.257,0.184,1.659
			c0.252,0.687,0.855,1.022,1.592,1.022c0.804,0,2.027-0.402,2.48-2.078H128.664z"/>
		<path d="M129.267,152.156h2.632v6.569h1.156v0.318h-3.788v-0.318h1.24v-6.251h-1.24V152.156z M131.144,147.497
			c0.536,0,0.973,0.436,0.973,0.972c0,0.537-0.437,0.972-0.973,0.972s-0.972-0.435-0.972-0.972
			C130.172,147.933,130.608,147.497,131.144,147.497z"/>
		<path d="M139.506,157.752c0.017,0.67,0.033,0.989,0.486,0.989c0.251,0,0.368-0.134,0.502-0.268l0.151,0.201
			c-0.335,0.352-0.704,0.52-1.189,0.52c-1.174,0-1.291-1.005-1.341-1.458c-0.47,1.005-1.24,1.458-2.212,1.458
			c-1.24,0-1.827-0.754-1.827-1.625c0-0.436,0.117-1.056,0.821-1.592c0.57-0.453,1.542-0.788,3.251-0.788v-1.693
			c0-0.385,0-1.273-1.224-1.273c-0.754,0-1.424,0.469-1.424,0.721c0,0.067,0.084,0.201,0.167,0.302
			c0.135,0.15,0.185,0.385,0.185,0.502c0,0.302-0.218,0.704-0.653,0.704c-0.469,0-0.637-0.452-0.637-0.771
			c0-0.872,1.072-1.776,2.598-1.776c0.771,0,1.541,0.251,1.943,0.704c0.419,0.469,0.402,1.039,0.402,1.643V157.752z
			 M138.165,155.474c-0.469,0-1.072,0.017-1.692,0.302c-0.855,0.385-1.039,0.989-1.039,1.491c0,0.838,0.57,1.19,1.123,1.19
			c0.469,0,0.805-0.218,0.955-0.369c0.604-0.52,0.62-1.19,0.653-2.011V155.474z"/>
		<path d="M145.489,152.474h-1.91v4.96c-0.017,0.469-0.017,1.24,0.904,1.24c0.855,0,1.022-0.721,1.057-0.955h0.318
			c-0.118,0.838-0.638,1.475-1.827,1.475c-1.005,0-1.508-0.469-1.692-1.022c-0.117-0.318-0.117-0.67-0.117-1.508v-4.189h-1.156
			v-0.218c0.939-0.402,1.927-1.592,2.329-2.882h0.185v2.782h1.91V152.474z"/>
		<path d="M146.076,152.156h2.631v6.569h1.156v0.318h-3.787v-0.318h1.239v-6.251h-1.239V152.156z M147.952,147.497
			c0.537,0,0.973,0.436,0.973,0.972c0,0.537-0.436,0.972-0.973,0.972c-0.536,0-0.972-0.435-0.972-0.972
			C146.98,147.933,147.415,147.497,147.952,147.497z"/>
		<path d="M154.371,159.244c-1.86,0-3.503-1.575-3.503-3.636c0-2.061,1.626-3.653,3.503-3.653c1.843,0,3.451,1.525,3.451,3.636
			C157.822,157.719,156.197,159.244,154.371,159.244z M154.353,152.307c-0.2,0-0.737,0.017-1.189,0.385
			c-0.653,0.52-0.653,1.089-0.653,3.268c0,1.341,0.033,2.061,0.653,2.547c0.335,0.268,0.788,0.385,1.224,0.385
			c0.586,0,0.988-0.218,1.223-0.419c0.486-0.469,0.537-0.972,0.537-2.849c0-0.469,0-0.922-0.018-1.391
			C156.096,153.63,156.046,152.307,154.353,152.307z"/>
		<path d="M162.615,159.043h-3.787v-0.318h1.19v-6.251h-1.19v-0.318h2.565v1.072c0.234-0.335,0.904-1.273,2.329-1.273
			c0.787,0,1.407,0.318,1.742,0.704c0.52,0.587,0.503,1.307,0.503,1.911v4.156h1.207v0.318h-3.754v-0.318h1.173v-4.542
			c-0.017-0.586-0.017-0.804-0.067-1.022c-0.218-0.754-0.921-0.754-1.105-0.754c-0.352,0-0.771,0.134-1.123,0.385
			c-0.855,0.653-0.888,1.642-0.904,2.966v2.966h1.223V159.043z"/>
		<path d="M176.071,159.244c-1.859,0-3.502-1.575-3.502-3.636c0-2.061,1.626-3.653,3.502-3.653c1.844,0,3.452,1.525,3.452,3.636
			C179.523,157.719,177.898,159.244,176.071,159.244z M176.054,152.307c-0.201,0-0.737,0.017-1.189,0.385
			c-0.653,0.52-0.653,1.089-0.653,3.268c0,1.341,0.033,2.061,0.653,2.547c0.335,0.268,0.787,0.385,1.224,0.385
			c0.586,0,0.988-0.218,1.223-0.419c0.486-0.469,0.536-0.972,0.536-2.849c0-0.469,0-0.922-0.017-1.391
			C177.797,153.63,177.747,152.307,176.054,152.307z"/>
		<path d="M184.835,152.474h-1.692v6.251h1.559v0.318h-4.441v-0.318h1.542v-6.251h-1.542v-0.318h1.542v-1.659
			c0-0.687,0.017-1.759,0.77-2.648c0.437-0.486,1.023-0.821,1.676-0.821c0.771,0,1.458,0.436,1.458,1.19
			c0,0.469-0.268,0.788-0.62,0.788c-0.318,0-0.619-0.302-0.619-0.721c0-0.419,0.251-0.653,0.368-0.754
			c-0.101-0.134-0.218-0.268-0.604-0.268c-1.089,0-1.089,1.123-1.089,1.625v3.268h1.692V152.474z"/>
		<path d="M19.054,178.982v0.318h-4.877v-0.318h1.608v-11.194h-1.608v-0.318h8.496l0.218,3.335h-0.218
			c-0.084-0.67-0.419-1.944-1.224-2.547c-0.603-0.469-1.19-0.469-2.396-0.469h-1.625v5.346h0.72c1.894,0,2.279-0.033,2.346-2.262
			h0.285v4.826h-0.285c0-0.184-0.05-1.106-0.285-1.542c-0.352-0.637-0.972-0.671-2.062-0.671h-0.72v5.497H19.054z"/>
		<path d="M23.411,172.413h2.631v6.569h1.156v0.318h-3.787v-0.318h1.24v-6.251h-1.24V172.413z M25.287,167.755
			c0.537,0,0.972,0.436,0.972,0.972c0,0.536-0.435,0.972-0.972,0.972c-0.536,0-0.972-0.436-0.972-0.972
			C24.315,168.19,24.751,167.755,25.287,167.755z"/>
		<path d="M31.722,179.301h-3.787v-0.318h1.19v-6.251h-1.19v-0.319h2.564v1.073c0.234-0.335,0.905-1.273,2.329-1.273
			c0.788,0,1.408,0.318,1.743,0.704c0.519,0.586,0.503,1.307,0.503,1.91v4.156h1.207v0.318h-3.754v-0.318H33.7v-4.542
			c-0.017-0.586-0.017-0.804-0.067-1.022c-0.218-0.754-0.921-0.754-1.106-0.754c-0.351,0-0.771,0.134-1.122,0.386
			c-0.854,0.653-0.888,1.642-0.905,2.966v2.966h1.223V179.301z"/>
		<path d="M42.732,178.01c0.017,0.67,0.033,0.989,0.486,0.989c0.252,0,0.369-0.134,0.503-0.268l0.151,0.201
			c-0.335,0.352-0.704,0.52-1.19,0.52c-1.173,0-1.29-1.006-1.341-1.458c-0.469,1.005-1.24,1.458-2.212,1.458
			c-1.24,0-1.827-0.754-1.827-1.625c0-0.436,0.118-1.056,0.821-1.592c0.57-0.452,1.541-0.788,3.251-0.788v-1.692
			c0-0.385,0-1.273-1.223-1.273c-0.754,0-1.424,0.469-1.424,0.721c0,0.067,0.083,0.201,0.168,0.301
			c0.134,0.151,0.184,0.386,0.184,0.503c0,0.302-0.218,0.704-0.653,0.704c-0.469,0-0.637-0.452-0.637-0.771
			c0-0.872,1.072-1.776,2.597-1.776c0.771,0,1.542,0.251,1.944,0.704c0.419,0.469,0.402,1.039,0.402,1.642V178.01z M41.391,175.731
			c-0.469,0-1.072,0.017-1.692,0.301c-0.854,0.386-1.039,0.989-1.039,1.492c0,0.838,0.57,1.19,1.123,1.19
			c0.469,0,0.804-0.218,0.955-0.369c0.603-0.519,0.62-1.19,0.653-2.011V175.731z"/>
		<path d="M48.379,179.301h-3.787v-0.318h1.19v-6.251h-1.19v-0.319h2.564v1.073c0.234-0.335,0.905-1.273,2.329-1.273
			c0.788,0,1.408,0.318,1.743,0.704c0.52,0.586,0.502,1.307,0.502,1.91v4.156h1.207v0.318h-3.753v-0.318h1.173v-4.542
			c-0.017-0.586-0.017-0.804-0.067-1.022c-0.218-0.754-0.922-0.754-1.106-0.754c-0.352,0-0.771,0.134-1.123,0.386
			c-0.854,0.653-0.888,1.642-0.905,2.966v2.966h1.223V179.301z"/>
		<path d="M60.21,177.089c-0.251,1.207-1.123,2.413-2.882,2.413c-1.927,0-3.368-1.626-3.368-3.569c0-2.112,1.592-3.72,3.552-3.72
			c1.508,0,2.447,0.955,2.447,1.81c0,0.553-0.335,0.922-0.754,0.922c-0.453,0-0.704-0.436-0.704-0.855
			c0-0.301,0.117-0.62,0.302-0.77c0.101-0.101,0.134-0.134,0.134-0.218c0-0.134-0.486-0.57-1.441-0.57
			c-0.318,0-1.207,0.017-1.626,0.921c-0.285,0.654-0.302,2.262-0.302,3.033c0,0.503,0.017,1.257,0.185,1.659
			c0.251,0.687,0.854,1.022,1.592,1.022c0.805,0,2.028-0.402,2.48-2.078H60.21z"/>
		<path d="M60.863,172.413h2.631v6.569h1.156v0.318h-3.787v-0.318h1.24v-6.251h-1.24V172.413z M62.74,167.755
			c0.536,0,0.972,0.436,0.972,0.972c0,0.536-0.436,0.972-0.972,0.972c-0.536,0-0.972-0.436-0.972-0.972
			C61.768,168.19,62.204,167.755,62.74,167.755z"/>
		<path d="M71.152,178.01c0.017,0.67,0.034,0.989,0.486,0.989c0.251,0,0.369-0.134,0.503-0.268l0.151,0.201
			c-0.335,0.352-0.704,0.52-1.19,0.52c-1.173,0-1.29-1.006-1.34-1.458c-0.469,1.005-1.24,1.458-2.212,1.458
			c-1.24,0-1.827-0.754-1.827-1.625c0-0.436,0.117-1.056,0.821-1.592c0.569-0.452,1.542-0.788,3.251-0.788v-1.692
			c0-0.385,0-1.273-1.223-1.273c-0.754,0-1.424,0.469-1.424,0.721c0,0.067,0.084,0.201,0.167,0.301
			c0.134,0.151,0.185,0.386,0.185,0.503c0,0.302-0.218,0.704-0.654,0.704c-0.469,0-0.637-0.452-0.637-0.771
			c0-0.872,1.073-1.776,2.598-1.776c0.771,0,1.542,0.251,1.944,0.704c0.419,0.469,0.402,1.039,0.402,1.642V178.01z M69.812,175.731
			c-0.469,0-1.073,0.017-1.692,0.301c-0.855,0.386-1.039,0.989-1.039,1.492c0,0.838,0.57,1.19,1.123,1.19
			c0.469,0,0.804-0.218,0.955-0.369c0.604-0.519,0.62-1.19,0.654-2.011V175.731z"/>
		<path d="M72.845,167.47h2.782v11.513h1.374v0.318h-4.156v-0.318h1.357v-11.194h-1.357V167.47z"/>
		<path d="M86.62,167.47c0.922,0,1.776,0,2.53,0.218c1.408,0.436,2.212,1.575,2.212,2.866c0,1.005-0.486,1.659-0.939,2.061
			c-1.056,0.956-2.43,0.972-3.435,0.989h-1.592v5.379h1.592v0.318h-4.86v-0.318h1.592v-11.194h-1.592v-0.318H86.62z M85.396,167.822
			v5.413h1.357c1.022-0.017,1.608-0.017,2.128-0.536c0.436-0.436,0.553-1.005,0.553-2.195c0-1.357-0.201-1.977-0.821-2.363
			c-0.486-0.302-0.972-0.318-2.329-0.318H85.396z"/>
		<path d="M91.998,172.413h2.631v1.776c0.269-0.72,0.704-1.927,1.911-1.927c0.67,0,1.005,0.452,1.005,0.972
			c0,0.503-0.302,0.872-0.704,0.872c-0.436,0-0.604-0.369-0.637-0.821v-0.151c-0.034-0.134-0.067-0.218-0.218-0.218
			c-0.117,0-0.486,0.05-0.838,0.838c-0.486,1.123-0.502,2.128-0.52,3.167v2.062h1.19v0.318h-3.821v-0.318h1.257v-6.251h-1.257
			V172.413z"/>
		<path d="M101.768,179.502c-1.86,0-3.502-1.575-3.502-3.637c0-2.061,1.625-3.653,3.502-3.653c1.843,0,3.452,1.525,3.452,3.636
			C105.22,177.977,103.595,179.502,101.768,179.502z M101.751,172.564c-0.201,0-0.737,0.017-1.19,0.386
			c-0.653,0.52-0.653,1.089-0.653,3.268c0,1.341,0.034,2.061,0.653,2.547c0.335,0.268,0.788,0.385,1.224,0.385
			c0.586,0,0.988-0.218,1.223-0.419c0.486-0.469,0.536-0.972,0.536-2.849c0-0.469,0-0.922-0.017-1.391
			C103.494,173.888,103.444,172.564,101.751,172.564z"/>
		<path d="M110.582,172.732h-1.692v6.251h1.559v0.318h-4.441v-0.318h1.542v-6.251h-1.542v-0.319h1.542v-1.659
			c0-0.687,0.017-1.76,0.771-2.648c0.436-0.486,1.022-0.821,1.676-0.821c0.771,0,1.458,0.436,1.458,1.189
			c0,0.469-0.268,0.788-0.62,0.788c-0.318,0-0.62-0.301-0.62-0.72c0-0.419,0.251-0.654,0.369-0.754
			c-0.1-0.134-0.218-0.268-0.603-0.268c-1.089,0-1.089,1.123-1.089,1.626v3.268h1.692V172.732z"/>
		<path d="M117.705,177.021c-0.184,1.123-1.089,2.48-2.815,2.48c-1.843,0-3.435-1.592-3.435-3.587c0-1.927,1.458-3.703,3.318-3.703
			c1.525,0,2.916,1.106,3.017,3.066h-4.709v0.737c0,1.458,0,2.011,0.385,2.514c0.336,0.436,0.872,0.62,1.424,0.62
			c1.291,0,2.229-0.972,2.447-2.128H117.705z M116.146,174.307c-0.017-0.67-0.033-1.76-1.475-1.76c-0.301,0-0.687,0.05-1.022,0.285
			c-0.536,0.386-0.553,0.938-0.57,1.475v0.637h3.066V174.307z"/>
		<path d="M119.296,179.301h-0.15v-2.648h0.268c0.201,0.788,0.301,1.14,0.603,1.542c0.067,0.101,0.67,0.888,1.692,0.888
			c1.039,0,1.626-0.737,1.626-1.324c0-0.687-0.452-0.921-1.692-1.156c-0.553-0.1-1.122-0.201-1.525-0.436
			c-0.704-0.402-0.922-1.173-0.922-1.793c0-1.24,0.838-2.162,2.095-2.162c0.922,0,1.475,0.469,1.76,0.72l0.318-0.62h0.168v2.061
			h-0.302c-0.167-1.24-1.189-1.776-1.977-1.776c-0.989,0-1.525,0.704-1.525,1.223c0,0.62,0.502,0.771,1.558,0.989l0.469,0.084
			c0.788,0.167,2.129,0.452,2.129,2.246c0,1.156-0.704,2.363-2.229,2.363c-0.905,0-1.458-0.419-1.96-0.821L119.296,179.301z"/>
		<path d="M125.53,179.301h-0.151v-2.648h0.269c0.201,0.788,0.301,1.14,0.603,1.542c0.067,0.101,0.67,0.888,1.692,0.888
			c1.04,0,1.626-0.737,1.626-1.324c0-0.687-0.452-0.921-1.692-1.156c-0.553-0.1-1.122-0.201-1.525-0.436
			c-0.704-0.402-0.922-1.173-0.922-1.793c0-1.24,0.838-2.162,2.095-2.162c0.921,0,1.475,0.469,1.759,0.72l0.318-0.62h0.168v2.061
			h-0.302c-0.167-1.24-1.189-1.776-1.977-1.776c-0.989,0-1.525,0.704-1.525,1.223c0,0.62,0.502,0.771,1.558,0.989l0.469,0.084
			c0.788,0.167,2.128,0.452,2.128,2.246c0,1.156-0.703,2.363-2.229,2.363c-0.905,0-1.458-0.419-1.96-0.821L125.53,179.301z"/>
		<path d="M131.178,172.413h2.631v6.569h1.156v0.318h-3.787v-0.318h1.239v-6.251h-1.239V172.413z M133.054,167.755
			c0.537,0,0.973,0.436,0.973,0.972c0,0.536-0.436,0.972-0.973,0.972c-0.536,0-0.972-0.436-0.972-0.972
			C132.083,168.19,132.518,167.755,133.054,167.755z"/>
		<path d="M139.523,179.502c-1.86,0-3.502-1.575-3.502-3.637c0-2.061,1.625-3.653,3.502-3.653c1.844,0,3.452,1.525,3.452,3.636
			C142.975,177.977,141.349,179.502,139.523,179.502z M139.506,172.564c-0.201,0-0.737,0.017-1.189,0.386
			c-0.654,0.52-0.654,1.089-0.654,3.268c0,1.341,0.034,2.061,0.654,2.547c0.335,0.268,0.787,0.385,1.223,0.385
			c0.587,0,0.989-0.218,1.224-0.419c0.486-0.469,0.536-0.972,0.536-2.849c0-0.469,0-0.922-0.017-1.391
			C141.249,173.888,141.199,172.564,139.506,172.564z"/>
		<path d="M147.818,179.301h-3.787v-0.318h1.189v-6.251h-1.189v-0.319h2.564v1.073c0.234-0.335,0.904-1.273,2.329-1.273
			c0.787,0,1.407,0.318,1.742,0.704c0.52,0.586,0.503,1.307,0.503,1.91v4.156h1.207v0.318h-3.754v-0.318h1.173v-4.542
			c-0.017-0.586-0.017-0.804-0.067-1.022c-0.218-0.754-0.921-0.754-1.105-0.754c-0.352,0-0.771,0.134-1.123,0.386
			c-0.855,0.653-0.888,1.642-0.904,2.966v2.966h1.223V179.301z"/>
		<path d="M158.828,178.01c0.017,0.67,0.033,0.989,0.486,0.989c0.251,0,0.368-0.134,0.503-0.268l0.15,0.201
			c-0.335,0.352-0.704,0.52-1.189,0.52c-1.174,0-1.291-1.006-1.341-1.458c-0.47,1.005-1.24,1.458-2.212,1.458
			c-1.24,0-1.827-0.754-1.827-1.625c0-0.436,0.117-1.056,0.821-1.592c0.57-0.452,1.542-0.788,3.251-0.788v-1.692
			c0-0.385,0-1.273-1.224-1.273c-0.754,0-1.424,0.469-1.424,0.721c0,0.067,0.084,0.201,0.168,0.301
			c0.134,0.151,0.184,0.386,0.184,0.503c0,0.302-0.218,0.704-0.653,0.704c-0.469,0-0.637-0.452-0.637-0.771
			c0-0.872,1.072-1.776,2.598-1.776c0.77,0,1.541,0.251,1.943,0.704c0.419,0.469,0.402,1.039,0.402,1.642V178.01z M157.487,175.731
			c-0.469,0-1.072,0.017-1.692,0.301c-0.855,0.386-1.039,0.989-1.039,1.492c0,0.838,0.57,1.19,1.123,1.19
			c0.469,0,0.805-0.218,0.955-0.369c0.604-0.519,0.62-1.19,0.653-2.011V175.731z"/>
		<path d="M160.52,167.47h2.782v11.513h1.374v0.318h-4.156v-0.318h1.357v-11.194h-1.357V167.47z"/>
		<path d="M165.732,179.301h-0.151v-2.648h0.269c0.201,0.788,0.302,1.14,0.603,1.542c0.066,0.101,0.67,0.888,1.692,0.888
			c1.039,0,1.625-0.737,1.625-1.324c0-0.687-0.452-0.921-1.692-1.156c-0.553-0.1-1.123-0.201-1.524-0.436
			c-0.704-0.402-0.922-1.173-0.922-1.793c0-1.24,0.838-2.162,2.095-2.162c0.922,0,1.475,0.469,1.76,0.72l0.318-0.62h0.167v2.061
			h-0.302c-0.167-1.24-1.189-1.776-1.978-1.776c-0.988,0-1.524,0.704-1.524,1.223c0,0.62,0.503,0.771,1.559,0.989l0.469,0.084
			c0.788,0.167,2.129,0.452,2.129,2.246c0,1.156-0.704,2.363-2.23,2.363c-0.904,0-1.458-0.419-1.96-0.821L165.732,179.301z"/>
	</g>
	<g>
		<g>
			<path d="M174.717,171.148c0-2.113,1.727-3.83,3.85-3.83c2.113,0,3.829,1.716,3.829,3.83c0,2.123-1.716,3.849-3.829,3.849
				C176.444,174.998,174.717,173.271,174.717,171.148z M181.92,171.148c0-1.865-1.488-3.354-3.354-3.354
				c-1.875,0-3.373,1.488-3.373,3.354c0,1.885,1.498,3.373,3.373,3.373C180.432,174.521,181.92,173.033,181.92,171.148z
				 M180.442,173.331h-0.615l-1.2-1.935h-0.982v1.935h-0.477v-4.197h1.836c1.111,0,1.488,0.417,1.488,1.111
				c0,0.823-0.576,1.131-1.319,1.151L180.442,173.331z M178.467,170.92c0.596,0,1.548,0.1,1.548-0.684
				c0-0.546-0.615-0.625-1.131-0.625h-1.24v1.309H178.467z"/>
		</g>
	</g>
</g>
</svg>